<svg width="40" height="40" viewBox="0 0 40 40" fill="none" xmlns="http://www.w3.org/2000/svg">
<g id="Check2Circle">
<g clip-path="url(#clip0_115_187)">
<g id="Vector" filter="url(#filter0_d_115_187)">
<path d="M6.25002 19.9998C6.24965 17.586 6.88471 15.2147 8.09137 13.1241C9.29803 11.0335 11.0338 9.29746 13.1241 8.09039C15.2144 6.88332 17.5857 6.2478 19.9995 6.2477C22.4133 6.24761 24.7846 6.88295 26.875 8.08985C27.162 8.253 27.5018 8.29602 27.8204 8.20954C28.1389 8.12305 28.4103 7.91408 28.5754 7.62822C28.7404 7.34236 28.7857 7.00282 28.7013 6.6837C28.617 6.36458 28.4098 6.09179 28.125 5.92485C25.0272 4.13631 21.4257 3.4199 17.8792 3.88675C14.3327 4.3536 11.0394 5.97761 8.50991 8.50691C5.98044 11.0362 4.35622 14.3295 3.88915 17.8759C3.42207 21.4224 4.13824 25.0239 5.92659 28.1219C7.71494 31.2198 10.4755 33.6411 13.7802 35.0103C17.0849 36.3795 20.749 36.6199 24.2043 35.6945C27.6596 34.769 30.713 32.7292 32.8909 29.8916C35.0688 27.0539 36.2496 23.5769 36.25 19.9998C36.25 19.6683 36.1183 19.3504 35.8839 19.116C35.6495 18.8815 35.3315 18.7499 35 18.7499C34.6685 18.7499 34.3506 18.8815 34.1161 19.116C33.8817 19.3504 33.75 19.6683 33.75 19.9998C33.75 23.6466 32.3014 27.1439 29.7227 29.7226C27.1441 32.3012 23.6468 33.7498 20 33.7498C16.3533 33.7498 12.8559 32.3012 10.2773 29.7226C7.69868 27.1439 6.25002 23.6466 6.25002 19.9998Z" fill="#00ADB5"/>
</g>
<g id="Vector_2" filter="url(#filter1_d_115_187)">
<path d="M38.385 8.38487C38.5012 8.26865 38.5934 8.13068 38.6563 7.97883C38.7192 7.82698 38.7516 7.66423 38.7516 7.49987C38.7516 7.33551 38.7192 7.17276 38.6563 7.02091C38.5934 6.86906 38.5012 6.73109 38.385 6.61487C38.2688 6.49865 38.1308 6.40646 37.979 6.34356C37.8271 6.28066 37.6644 6.24829 37.5 6.24829C37.3356 6.24829 37.1729 6.28066 37.021 6.34356C36.8692 6.40646 36.7312 6.49865 36.615 6.61487L20 23.2324L13.385 16.6149C13.2688 16.4986 13.1308 16.4065 12.979 16.3436C12.8271 16.2807 12.6644 16.2483 12.5 16.2483C12.3356 16.2483 12.1729 16.2807 12.021 16.3436C11.8692 16.4065 11.7312 16.4986 11.615 16.6149C11.4988 16.7311 11.4066 16.8691 11.3437 17.0209C11.2808 17.1728 11.2484 17.3355 11.2484 17.4999C11.2484 17.6642 11.2808 17.827 11.3437 17.9788C11.4066 18.1307 11.4988 18.2687 11.615 18.3849L19.115 25.8849C19.2311 26.0013 19.369 26.0936 19.5209 26.1567C19.6728 26.2197 19.8356 26.2521 20 26.2521C20.1644 26.2521 20.3272 26.2197 20.4791 26.1567C20.6309 26.0936 20.7689 26.0013 20.885 25.8849L38.385 8.38487Z" fill="#00ADB5"/>
</g>
</g>
</g>
<defs>
<filter id="filter0_d_115_187" x="-0.25" y="3.74774" width="40.5" height="40.5" filterUnits="userSpaceOnUse" color-interpolation-filters="sRGB">
<feFlood flood-opacity="0" result="BackgroundImageFix"/>
<feColorMatrix in="SourceAlpha" type="matrix" values="0 0 0 0 0 0 0 0 0 0 0 0 0 0 0 0 0 0 127 0" result="hardAlpha"/>
<feOffset dy="4"/>
<feGaussianBlur stdDeviation="2"/>
<feComposite in2="hardAlpha" operator="out"/>
<feColorMatrix type="matrix" values="0 0 0 0 0 0 0 0 0 0 0 0 0 0 0 0 0 0 0.2 0"/>
<feBlend mode="normal" in2="BackgroundImageFix" result="effect1_dropShadow_115_187"/>
<feBlend mode="normal" in="SourceGraphic" in2="effect1_dropShadow_115_187" result="shape"/>
</filter>
<filter id="filter1_d_115_187" x="7.24841" y="6.24829" width="35.5032" height="28.0038" filterUnits="userSpaceOnUse" color-interpolation-filters="sRGB">
<feFlood flood-opacity="0" result="BackgroundImageFix"/>
<feColorMatrix in="SourceAlpha" type="matrix" values="0 0 0 0 0 0 0 0 0 0 0 0 0 0 0 0 0 0 127 0" result="hardAlpha"/>
<feOffset dy="4"/>
<feGaussianBlur stdDeviation="2"/>
<feComposite in2="hardAlpha" operator="out"/>
<feColorMatrix type="matrix" values="0 0 0 0 0 0 0 0 0 0 0 0 0 0 0 0 0 0 0.2 0"/>
<feBlend mode="normal" in2="BackgroundImageFix" result="effect1_dropShadow_115_187"/>
<feBlend mode="normal" in="SourceGraphic" in2="effect1_dropShadow_115_187" result="shape"/>
</filter>
<clipPath id="clip0_115_187">
<rect y="-0.00012207" width="40" height="40" rx="20" fill="white"/>
</clipPath>
</defs>
</svg>
