<svg width="16" height="13" viewBox="0 0 16 13" fill="none" xmlns="http://www.w3.org/2000/svg">
<path d="M7.77798 12.3952C3.91992 12.3952 0.778839 9.6138 0.778839 6.19758C0.778839 2.78135 3.91992 0 7.77798 0C11.636 0 14.7771 2.78135 14.7771 6.19758C14.7771 9.6138 11.636 12.3952 7.77798 12.3952ZM7.77798 0.906963C4.47985 0.906963 1.8031 3.2832 1.8031 6.19758C1.8031 9.11195 4.47985 11.4882 7.77798 11.4882C11.0761 11.4882 13.7528 9.11195 13.7528 6.19758C13.7528 3.2832 11.0761 0.906963 7.77798 0.906963Z" fill="black"/>
<path d="M14.9481 13C14.8184 13 14.6887 12.9577 14.5862 12.867L13.2205 11.6577C13.0225 11.4823 13.0225 11.1921 13.2205 11.0168C13.4186 10.8414 13.7463 10.8414 13.9444 11.0168L15.31 12.226C15.5081 12.4014 15.5081 12.6916 15.31 12.867C15.2076 12.9577 15.0779 13 14.9481 13Z" fill="black"/>
</svg>
