<svg width="25" height="23" viewBox="0 0 25 23" fill="none" xmlns="http://www.w3.org/2000/svg">
<g id="squre">
<g id="Rectangle 51">
<mask id="path-1-outside-1_292_295" maskUnits="userSpaceOnUse" x="0.459351" y="0.253174" width="24" height="22" fill="black">
<rect fill="white" x="0.459351" y="0.253174" width="24" height="22"/>
<path d="M2.45935 2.25317C2.45935 1.70089 2.90707 1.25317 3.45935 1.25317H21.4594C22.0116 1.25317 22.4594 1.70089 22.4594 2.25317V20.2532C22.4594 20.8055 22.0116 21.2532 21.4594 21.2532H3.45935C2.90707 21.2532 2.45935 20.8055 2.45935 20.2532V2.25317Z"/>
</mask>
<path d="M0.459351 2.25317C0.459351 1.1486 1.35478 0.253174 2.45935 0.253174H22.4594C23.5639 0.253174 24.4594 1.1486 24.4594 2.25317H20.4594H4.45935H0.459351ZM24.4594 20.2532C24.4594 21.3577 23.5639 22.2532 22.4594 22.2532H2.45935C1.35478 22.2532 0.459351 21.3577 0.459351 20.2532H4.45935H20.4594H24.4594ZM2.45935 22.2532C1.35478 22.2532 0.459351 21.3577 0.459351 20.2532V2.25317C0.459351 1.1486 1.35478 0.253174 2.45935 0.253174L4.45935 2.25317V20.2532L2.45935 22.2532ZM22.4594 0.253174C23.5639 0.253174 24.4594 1.1486 24.4594 2.25317V20.2532C24.4594 21.3577 23.5639 22.2532 22.4594 22.2532L20.4594 20.2532V2.25317L22.4594 0.253174Z" fill="white" fill-opacity="0.8" mask="url(#path-1-outside-1_292_295)"/>
</g>
<g id="Group 8">
<line id="Line 11" y1="-1" x2="8.08133" y2="-1" transform="matrix(0.70669 0.707523 -0.70669 0.707523 6.74506 9.39478)" stroke="white" stroke-width="2"/>
<line id="Line 12" x1="11.7523" y1="14.4037" x2="17.4666" y2="8.68945" stroke="white" stroke-width="2"/>
</g>
</g>
</svg>
