<svg width="31" height="30" viewBox="0 0 31 30" fill="none" xmlns="http://www.w3.org/2000/svg">
<path id="Vector" d="M30.1432 15C30.1432 18.9782 28.5966 22.7936 25.8436 25.6066C23.0906 28.4196 19.3568 30 15.4635 30C11.5702 30 7.83637 28.4196 5.08339 25.6066C2.33042 22.7936 0.783813 18.9782 0.783813 15C0.783813 11.0218 2.33042 7.20644 5.08339 4.3934C7.83637 1.58035 11.5702 0 15.4635 0C19.3568 0 23.0906 1.58035 25.8436 4.3934C28.5966 7.20644 30.1432 11.0218 30.1432 15ZM10.8688 11.3119H12.3826C12.6358 11.3119 12.8377 11.1 12.8707 10.8431C13.0358 9.61312 13.8616 8.71688 15.3332 8.71688C16.592 8.71688 17.7444 9.36 17.7444 10.9069C17.7444 12.0975 17.0581 12.645 15.9736 13.4775C14.7387 14.3944 13.7607 15.465 13.8304 17.2031L13.8359 17.61C13.8378 17.733 13.887 17.8503 13.9728 17.9366C14.0586 18.0229 14.1742 18.0713 14.2946 18.0712H15.7828C15.9045 18.0712 16.0211 18.0219 16.1072 17.934C16.1932 17.846 16.2415 17.7268 16.2415 17.6025V17.4056C16.2415 16.0594 16.7425 15.6675 18.0948 14.6194C19.2123 13.7513 20.3775 12.7875 20.3775 10.7644C20.3775 7.93125 18.0361 6.5625 15.4727 6.5625C13.1478 6.5625 10.6009 7.66875 10.4265 10.8487C10.424 10.9093 10.4337 10.9697 10.4548 11.0263C10.476 11.0829 10.5083 11.1345 10.5498 11.1779C10.5912 11.2213 10.6408 11.2555 10.6957 11.2786C10.7506 11.3016 10.8095 11.313 10.8688 11.3119ZM15.135 23.3925C16.2544 23.3925 17.0232 22.6537 17.0232 21.6544C17.0232 20.6194 16.2525 19.8919 15.135 19.8919C14.0634 19.8919 13.2836 20.6194 13.2836 21.6544C13.2836 22.6537 14.0616 23.3925 15.135 23.3925Z" fill="#88878B"/>
</svg>
