<svg width="39" height="35" viewBox="0 0 39 35" fill="none" xmlns="http://www.w3.org/2000/svg">
<g id="&#240;&#159;&#166;&#134; icon &#34;document upload&#34;">
<g id="Group">
<path id="Vector" d="M36.5744 14.366H30.8255C26.1109 14.366 22.2716 11.0809 22.2716 7.04681V2.12766C22.2716 1.19149 21.3765 0.425537 20.2824 0.425537H11.8479C5.72096 0.425537 0.7677 3.82979 0.7677 9.90639V24.9872C0.7677 31.0638 5.72096 34.4681 11.8479 34.4681H27.4835C33.6104 34.4681 38.5637 31.0638 38.5637 24.9872V16.0681C38.5637 15.1319 37.6685 14.366 36.5744 14.366ZM18.7307 20.0511C18.4323 20.3064 18.0544 20.4255 17.6764 20.4255C17.2985 20.4255 16.9205 20.3064 16.6221 20.0511L15.1898 18.8255V25.9575C15.1898 26.6553 14.5135 27.234 13.6979 27.234C12.8823 27.234 12.206 26.6553 12.206 25.9575V18.8255L10.7737 20.0511C10.1968 20.5447 9.24196 20.5447 8.66507 20.0511C8.08818 19.5575 8.08818 18.7404 8.66507 18.2468L12.6436 14.8426C12.7828 14.7404 12.9221 14.6553 13.0812 14.5872C13.121 14.5702 13.1807 14.5532 13.2205 14.5362C13.3398 14.5021 13.4592 14.4851 13.5984 14.4681H13.7576C13.9167 14.4681 14.0759 14.5021 14.235 14.5532H14.2748C14.4339 14.6043 14.5931 14.7064 14.7124 14.8085C14.7323 14.8255 14.7522 14.8255 14.7522 14.8426L18.7307 18.2468C19.3076 18.7404 19.3076 19.5575 18.7307 20.0511Z" fill="url(#paint0_linear_22_7)"/>
<path id="Vector_2" d="M30.4668 12.0176C32.3566 12.0346 34.9824 12.0346 37.2303 12.0346C38.3642 12.0346 38.961 10.8942 38.1653 10.2134C35.3007 7.74528 30.1684 3.30272 27.2243 0.783575C26.4087 0.0857023 24.9963 0.562298 24.9963 1.53251V7.47294C24.9963 9.95804 27.463 12.0176 30.4668 12.0176Z" fill="url(#paint1_linear_22_7)"/>
</g>
</g>
<defs>
<linearGradient id="paint0_linear_22_7" x1="19.6657" y1="0.425537" x2="19.6657" y2="34.4681" gradientUnits="userSpaceOnUse">
<stop offset="0.9999" stop-color="#00ADB5"/>
<stop offset="1" stop-color="#00B512" stop-opacity="0"/>
</linearGradient>
<linearGradient id="paint1_linear_22_7" x1="31.7629" y1="0.451904" x2="31.7629" y2="12.0346" gradientUnits="userSpaceOnUse">
<stop offset="0.9999" stop-color="#00ADB5"/>
<stop offset="1" stop-color="#00B512" stop-opacity="0"/>
</linearGradient>
</defs>
</svg>
